<svg width="17" height="15" viewBox="0 0 17 15" fill="none" xmlns="http://www.w3.org/2000/svg">
<path d="M11.775 0.459473H0.435547V14.6831L11.8491 14.5318C14.2023 14.4982 16.1107 12.7497 16.1107 10.6144C16.1107 9.3871 15.4807 8.27745 14.4987 7.5545C15.4807 6.83154 16.1107 5.73871 16.1107 4.49456V4.36005C16.0922 2.22482 14.1467 0.459473 11.775 0.459473ZM11.7935 12.8169L2.32546 12.9346V8.44558H11.7565C13.0905 8.44558 14.1652 9.42072 14.1652 10.6312C14.1837 11.825 13.1091 12.8001 11.7935 12.8169ZM14.1837 4.51137C14.1837 5.72189 13.1091 6.69704 11.775 6.69704H2.34399V2.1912H11.775C13.1091 2.1912 14.1837 3.16634 14.1837 4.37687V4.51137Z" fill="#3121E3"/>
</svg>
