<svg width="28" height="20" viewBox="0 0 28 20" fill="none" xmlns="http://www.w3.org/2000/svg">
<path d="M26.0003 0.666748H24.667H22.0003H6.00033H3.33366H2.00033C1.26299 0.666748 0.666992 1.26275 0.666992 2.00008V3.33341V5.91741V7.33342H1.85766C3.18566 7.33342 4.41766 8.24141 4.63099 9.55208C4.90299 11.2227 3.62033 12.6667 2.00033 12.6667H0.666992V14.0827V16.6667V18.0001C0.666992 18.7374 1.26299 19.3334 2.00033 19.3334H3.33366H6.00033H22.0003H24.667H26.0003C26.7377 19.3334 27.3337 18.7374 27.3337 18.0001V16.6667V14.0827V12.6667C27.3337 12.6667 26.7377 12.6667 26.0003 12.6667C24.3803 12.6667 23.0977 11.2227 23.3697 9.55208C23.583 8.24141 24.815 7.33342 26.143 7.33342H27.3337V5.91741V3.33341V2.00008C27.3337 1.26275 26.7377 0.666748 26.0003 0.666748ZM10.0003 6.00008C10.7377 6.00008 11.3337 6.59608 11.3337 7.33342C11.3337 8.07075 10.7377 8.66675 10.0003 8.66675C9.26299 8.66675 8.66699 8.07075 8.66699 7.33342C8.66699 6.59608 9.26299 6.00008 10.0003 6.00008ZM8.93366 14.5334L16.9337 3.86675L19.067 5.46675L11.067 16.1334L8.93366 14.5334ZM18.0003 14.0001C17.263 14.0001 16.667 13.4041 16.667 12.6667C16.667 11.9294 17.263 11.3334 18.0003 11.3334C18.7377 11.3334 19.3337 11.9294 19.3337 12.6667C19.3337 13.4041 18.7377 14.0001 18.0003 14.0001Z" fill="#3121E3"/>
</svg>
