<svg width="27" height="21" viewBox="0 0 27 21" fill="none" xmlns="http://www.w3.org/2000/svg">
<path d="M25.059 6.05592L19.3257 11.7786L17.603 10.0559L15.7177 11.9413L19.3257 15.5466L26.9417 7.94392L25.059 6.05592ZM3.33366 5.66659C3.33366 8.70659 5.62699 10.9999 8.66699 10.9999C11.707 10.9999 14.0003 8.70659 14.0003 5.66659C14.0003 2.62659 11.707 0.333252 8.66699 0.333252C5.62699 0.333252 3.33366 2.62659 3.33366 5.66659ZM11.3337 5.66659C11.3337 7.23725 10.2377 8.33325 8.66699 8.33325C7.09633 8.33325 6.00033 7.23725 6.00033 5.66659C6.00033 4.09592 7.09633 2.99992 8.66699 2.99992C10.2377 2.99992 11.3337 4.09592 11.3337 5.66659ZM3.33366 18.9999C3.33366 16.7946 5.12833 14.9999 7.33366 14.9999H10.0003C12.2057 14.9999 14.0003 16.7946 14.0003 18.9999V20.3333H16.667V18.9999C16.667 15.3239 13.6763 12.3333 10.0003 12.3333H7.33366C3.65766 12.3333 0.666992 15.3239 0.666992 18.9999V20.3333H3.33366V18.9999Z" fill="#3121E3"/>
</svg>
