<svg width="24" height="28" viewBox="0 0 24 28" fill="none" xmlns="http://www.w3.org/2000/svg">
<path d="M21.3333 0.666748H8C6.52933 0.666748 5.33333 1.86275 5.33333 3.33341V11.3334H2.66667C1.196 11.3334 0 12.5294 0 14.0001V26.0001C0 26.7361 0.596 27.3334 1.33333 27.3334H12H22.6667C23.404 27.3334 24 26.7361 24 26.0001V3.33341C24 1.86275 22.804 0.666748 21.3333 0.666748ZM2.66667 14.0001H6.66667H10.6667V16.6667V19.3334V24.6667H2.66667V14.0001ZM21.3333 24.6667H13.3333V19.3334V16.6667V14.0001C13.3333 12.5294 12.1373 11.3334 10.6667 11.3334H8V3.33341H21.3333V24.6667Z" fill="#3121E3"/>
</svg>
