<svg width="28" height="26" viewBox="0 0 28 26" fill="none" xmlns="http://www.w3.org/2000/svg">
<path d="M24.667 8.66675H17.1843L18.6817 4.17741C18.951 3.36675 18.815 2.46808 18.315 1.77475C17.815 1.08141 17.0043 0.666748 16.1497 0.666748H14.0003C13.6043 0.666748 13.2297 0.842748 12.975 1.14675L6.70833 8.66675H3.33366C1.86299 8.66675 0.666992 9.86275 0.666992 11.3334V23.3334C0.666992 24.8041 1.86299 26.0001 3.33366 26.0001H7.33366H21.0763C22.1817 26.0001 23.1843 25.3054 23.5737 24.2694L27.2497 14.4681C27.3057 14.3187 27.3337 14.1601 27.3337 14.0001V11.3334C27.3337 9.86275 26.1377 8.66675 24.667 8.66675ZM3.33366 11.3334H6.00033V23.3334H3.33366V11.3334ZM24.667 13.7587L21.0763 23.3334H8.66699V10.4827L14.6243 3.33341H16.1523L14.0697 9.57741C13.9323 9.98408 14.0017 10.4307 14.2523 10.7787C14.503 11.1281 14.9057 11.3334 15.3337 11.3334H24.667V13.7587Z" fill="#3121E3"/>
</svg>
