<svg width="28" height="28" viewBox="0 0 28 28" fill="none" xmlns="http://www.w3.org/2000/svg">
<path d="M14.0003 0.666748C6.64833 0.666748 0.666992 6.64808 0.666992 14.0001C0.666992 21.3521 6.64833 27.3334 14.0003 27.3334C21.3523 27.3334 27.3337 21.3521 27.3337 14.0001C27.3337 6.64808 21.3523 0.666748 14.0003 0.666748ZM24.575 12.6667H15.3337V6.00008V3.42541C20.1483 4.02941 23.971 7.85208 24.575 12.6667ZM3.33366 14.0001C3.33366 8.57075 7.41499 4.08541 12.667 3.42541V6.00008V14.0001C12.667 14.1587 12.7043 14.3121 12.759 14.4601C12.7763 14.5027 12.7937 14.5427 12.815 14.5841C12.835 14.6241 12.8443 14.6681 12.8697 14.7081L18.4723 23.6721C17.1097 24.3041 15.5977 24.6667 14.0003 24.6667C8.11899 24.6667 3.33366 19.8814 3.33366 14.0001ZM20.7363 22.2614L16.407 15.3334H24.575C24.2257 18.1161 22.807 20.5707 20.7363 22.2614Z" fill="#3121E3"/>
</svg>
