<svg width="28" height="25" viewBox="0 0 28 25" fill="none" xmlns="http://www.w3.org/2000/svg">
<path d="M25.6963 8.5415L23.8723 3.06816C23.327 1.43216 21.803 0.333496 20.079 0.333496H7.92166C6.19766 0.333496 4.67366 1.43216 4.12833 3.06816L2.30433 8.5415C1.34433 8.9455 0.666992 9.89483 0.666992 11.0002V17.6668C0.666992 18.6708 1.23099 19.5362 2.05233 19.9908C2.03499 20.0788 2.00033 20.1588 2.00033 20.2508V23.0002C2.00033 23.7375 2.59633 24.3335 3.33366 24.3335H4.66699C5.40433 24.3335 6.00033 23.7375 6.00033 23.0002V20.3335H22.0003V23.0002C22.0003 23.7375 22.5963 24.3335 23.3337 24.3335H24.667C25.4043 24.3335 26.0003 23.7375 26.0003 23.0002V20.2508C26.0003 20.1588 25.9657 20.0775 25.9483 19.9908C26.7697 19.5362 27.3337 18.6708 27.3337 17.6668V11.0002C27.3337 9.89483 26.6563 8.9455 25.6963 8.5415ZM3.33366 17.6668V11.0002H24.667L24.6697 17.6668H3.33366ZM7.92166 3.00016H20.0777C20.6523 3.00016 21.1617 3.3655 21.343 3.91216L22.8177 8.3335H5.18299L6.65633 3.91216C6.83899 3.3655 7.34833 3.00016 7.92166 3.00016Z" fill="#3121E3"/>
</svg>
