<svg width="12" height="16" viewBox="0 0 12 16" fill="none" xmlns="http://www.w3.org/2000/svg">
<path d="M6.00033 6.66678C3.33366 6.66678 3.33366 5.83211 3.33366 5.33345C3.33366 4.68811 4.26833 4.00011 6.00033 4.00011C7.58033 4.00011 7.84833 4.85078 7.86699 5.35745L9.20033 5.33345H10.5337C10.5337 3.96545 9.64566 2.04145 7.33366 1.49478V0.0161133H4.66699V1.44678C2.03899 1.88811 0.666992 3.61611 0.666992 5.33345C0.666992 6.82678 1.36033 9.33345 6.00033 9.33345C8.66699 9.33345 8.66699 10.2348 8.66699 10.6668C8.66699 11.2201 7.84033 12.0001 6.00033 12.0001C3.54566 12.0001 3.34833 10.8574 3.33366 10.6668H0.666992C0.666992 11.8908 1.54833 14.0708 4.66699 14.5601V16.0001H7.33366V14.5534C9.96166 14.1121 11.3337 12.3841 11.3337 10.6668C11.3337 9.17345 10.6403 6.66678 6.00033 6.66678Z" fill="#3121E3"/>
</svg>
