<svg width="108" height="58" viewBox="0 0 108 58" fill="none" xmlns="http://www.w3.org/2000/svg">
<g filter="url(#filter0_d)">
<rect x="16" y="12" width="76" height="26" rx="2" fill="white"/>
<path d="M37.0957 20.34C38.1783 20.34 39.023 20.6013 39.6297 21.124C40.2457 21.6467 40.5537 22.3933 40.5537 23.364C40.5537 24.2973 40.2457 25.0253 39.6297 25.548C39.023 26.0707 38.155 26.332 37.0257 26.332H34.7577V30H32.9237V20.34H37.0957ZM37.1657 24.722C38.2017 24.722 38.7197 24.2647 38.7197 23.35C38.7197 22.874 38.5843 22.5193 38.3137 22.286C38.043 22.0527 37.6603 21.936 37.1657 21.936H34.7577V24.722H37.1657ZM41.7147 20.298H43.4367V21.684H41.7147V20.298ZM41.7147 22.72H43.4367V30H41.7147V22.72ZM48.2276 30.126C47.1916 30.126 46.3796 29.8413 45.7916 29.272C45.2036 28.7027 44.9096 27.872 44.9096 26.78V25.912C44.9096 24.8293 45.2036 24.008 45.7916 23.448C46.3796 22.8787 47.1916 22.594 48.2276 22.594C49.245 22.594 50.0383 22.832 50.6076 23.308C51.177 23.784 51.4616 24.442 51.4616 25.282V25.366H49.7676V25.31C49.7676 24.946 49.6323 24.6613 49.3616 24.456C49.1003 24.2413 48.7363 24.134 48.2696 24.134C47.7283 24.134 47.3176 24.2787 47.0376 24.568C46.767 24.8573 46.6316 25.3147 46.6316 25.94V26.766C46.6316 27.4007 46.7716 27.8627 47.0516 28.152C47.3316 28.432 47.7516 28.572 48.3116 28.572C48.7596 28.572 49.1096 28.474 49.3616 28.278C49.623 28.0727 49.7536 27.7973 49.7536 27.452V27.396H51.4476V27.452C51.4476 28.2827 51.163 28.936 50.5936 29.412C50.0243 29.888 49.2356 30.126 48.2276 30.126ZM55.6139 26.738L54.5779 27.746V30H52.8419V20.34H54.5779V25.8L57.5319 22.72H59.7579L56.8319 25.562L59.9679 30H57.7699L55.6139 26.738ZM63.8966 30.126C62.8232 30.126 62.0112 29.86 61.4606 29.328C60.9192 28.7867 60.6486 27.9933 60.6486 26.948V22.72H62.3846V26.864C62.3846 27.424 62.5012 27.8487 62.7346 28.138C62.9772 28.4273 63.3646 28.572 63.8966 28.572C64.4379 28.572 64.8252 28.432 65.0586 28.152C65.2919 27.8627 65.4086 27.4333 65.4086 26.864V22.72H67.1446V26.948C67.1446 28.0027 66.8692 28.796 66.3186 29.328C65.7772 29.86 64.9699 30.126 63.8966 30.126ZM68.6603 22.72H70.3543V23.546C70.8956 22.9113 71.5863 22.594 72.4263 22.594C73.2943 22.594 73.985 22.874 74.4983 23.434C75.0116 23.994 75.2683 24.8013 75.2683 25.856V26.766C75.2683 27.466 75.1423 28.0727 74.8903 28.586C74.6476 29.09 74.3116 29.4727 73.8823 29.734C73.453 29.9953 72.963 30.126 72.4123 30.126C71.5443 30.126 70.8723 29.8367 70.3963 29.258V32.184H68.6603V22.72ZM72.0063 28.572C72.501 28.572 72.879 28.418 73.1403 28.11C73.4016 27.7927 73.5323 27.3213 73.5323 26.696V25.94C73.5323 24.736 73.0143 24.134 71.9783 24.134C71.4836 24.134 71.0963 24.2927 70.8163 24.61C70.5363 24.918 70.3963 25.352 70.3963 25.912V26.836C70.3963 27.368 70.541 27.7927 70.8303 28.11C71.1196 28.418 71.5116 28.572 72.0063 28.572Z" fill="#31333B"/>
</g>
<defs>
<filter id="filter0_d" x="0" y="0" width="108" height="58" filterUnits="userSpaceOnUse" color-interpolation-filters="sRGB">
<feFlood flood-opacity="0" result="BackgroundImageFix"/>
<feColorMatrix in="SourceAlpha" type="matrix" values="0 0 0 0 0 0 0 0 0 0 0 0 0 0 0 0 0 0 127 0"/>
<feOffset dy="4"/>
<feGaussianBlur stdDeviation="8"/>
<feColorMatrix type="matrix" values="0 0 0 0 0 0 0 0 0 0 0 0 0 0 0 0 0 0 0.08 0"/>
<feBlend mode="normal" in2="BackgroundImageFix" result="effect1_dropShadow"/>
<feBlend mode="normal" in="SourceGraphic" in2="effect1_dropShadow" result="shape"/>
</filter>
</defs>
</svg>
