<svg width="118" height="58" viewBox="0 0 118 58" fill="none" xmlns="http://www.w3.org/2000/svg">
<g filter="url(#filter0_d)">
<rect x="16" y="12" width="86" height="26" rx="2" fill="white"/>
<path d="M33.2547 20.34H37.0207C38.3087 20.34 39.3027 20.6853 40.0027 21.376C40.712 22.0667 41.0667 23.1307 41.0667 24.568V25.758C41.0667 27.1953 40.7074 28.264 39.9887 28.964C39.27 29.6547 38.2574 30 36.9507 30H33.2547V20.34ZM37.0067 28.404C37.7627 28.404 38.3227 28.194 38.6867 27.774C39.0507 27.3447 39.2327 26.6727 39.2327 25.758V24.666C39.2327 23.714 39.0507 23.0233 38.6867 22.594C38.3227 22.1553 37.7627 21.936 37.0067 21.936H35.0887V28.404H37.0067ZM44.0642 26.836V26.864C44.0642 28.0307 44.6616 28.614 45.8562 28.614C46.2576 28.614 46.5842 28.5393 46.8362 28.39C47.0976 28.2407 47.2469 28.0307 47.2842 27.76L47.2982 27.718H48.9922V27.802C48.9456 28.502 48.6329 29.0667 48.0542 29.496C47.4849 29.916 46.7289 30.126 45.7862 30.126C44.7129 30.126 43.8682 29.832 43.2522 29.244C42.6456 28.656 42.3422 27.7973 42.3422 26.668V26.038C42.3422 24.9273 42.6409 24.078 43.2382 23.49C43.8356 22.8927 44.6569 22.594 45.7022 22.594C46.7476 22.594 47.5689 22.888 48.1662 23.476C48.7636 24.064 49.0622 24.904 49.0622 25.996V26.836H44.0642ZM45.7022 24.078C44.6756 24.078 44.1296 24.6007 44.0642 25.646H47.3262V25.548C47.3262 25.0627 47.1769 24.6987 46.8782 24.456C46.5889 24.204 46.1969 24.078 45.7022 24.078ZM52.8743 30C52.053 30 51.4416 29.8087 51.0403 29.426C50.6483 29.034 50.4523 28.4413 50.4523 27.648V20.34H52.1883V27.536C52.1883 27.8907 52.2583 28.1427 52.3983 28.292C52.5476 28.432 52.809 28.502 53.1823 28.502H53.8403V30H52.8743ZM54.8836 20.298H56.6056V21.684H54.8836V20.298ZM54.8836 22.72H56.6056V30H54.8836V22.72ZM57.3555 22.72H59.2315L61.0095 27.662L62.7735 22.72H64.6495L61.7095 30H60.2815L57.3555 22.72ZM66.8689 26.836V26.864C66.8689 28.0307 67.4663 28.614 68.6609 28.614C69.0623 28.614 69.3889 28.5393 69.6409 28.39C69.9023 28.2407 70.0516 28.0307 70.0889 27.76L70.1029 27.718H71.7969V27.802C71.7503 28.502 71.4376 29.0667 70.8589 29.496C70.2896 29.916 69.5336 30.126 68.5909 30.126C67.5176 30.126 66.6729 29.832 66.0569 29.244C65.4503 28.656 65.1469 27.7973 65.1469 26.668V26.038C65.1469 24.9273 65.4456 24.078 66.0429 23.49C66.6403 22.8927 67.4616 22.594 68.5069 22.594C69.5523 22.594 70.3736 22.888 70.9709 23.476C71.5683 24.064 71.8669 24.904 71.8669 25.996V26.836H66.8689ZM68.5069 24.078C67.4803 24.078 66.9343 24.6007 66.8689 25.646H70.1309V25.548C70.1309 25.0627 69.9816 24.6987 69.6829 24.456C69.3936 24.204 69.0016 24.078 68.5069 24.078ZM73.257 22.72H74.951V23.546C75.1936 23.2193 75.497 22.9767 75.861 22.818C76.2343 22.65 76.6403 22.566 77.079 22.566C77.3496 22.566 77.5783 22.5847 77.765 22.622V24.274C77.4476 24.1527 77.1023 24.092 76.729 24.092C76.1783 24.092 75.749 24.2553 75.441 24.582C75.1423 24.8993 74.993 25.3613 74.993 25.968V30H73.257V22.72ZM85.4447 22.72L82.3507 30.63C82.1454 31.162 81.8421 31.5493 81.4407 31.792C81.0394 32.0347 80.5167 32.156 79.8727 32.156H79.2007V30.602H79.9567C80.2927 30.602 80.5354 30.5553 80.6847 30.462C80.8434 30.378 80.9694 30.2147 81.0627 29.972L81.1047 29.846L78.1367 22.72H80.0127L81.9027 27.592L83.6387 22.72H85.4447Z" fill="#31333B"/>
</g>
<defs>
<filter id="filter0_d" x="0" y="0" width="118" height="58" filterUnits="userSpaceOnUse" color-interpolation-filters="sRGB">
<feFlood flood-opacity="0" result="BackgroundImageFix"/>
<feColorMatrix in="SourceAlpha" type="matrix" values="0 0 0 0 0 0 0 0 0 0 0 0 0 0 0 0 0 0 127 0"/>
<feOffset dy="4"/>
<feGaussianBlur stdDeviation="8"/>
<feColorMatrix type="matrix" values="0 0 0 0 0 0 0 0 0 0 0 0 0 0 0 0 0 0 0.08 0"/>
<feBlend mode="normal" in2="BackgroundImageFix" result="effect1_dropShadow"/>
<feBlend mode="normal" in="SourceGraphic" in2="effect1_dropShadow" result="shape"/>
</filter>
</defs>
</svg>
