<svg width="45" height="9" viewBox="0 0 45 9" fill="none" xmlns="http://www.w3.org/2000/svg">
<path d="M6.39984 1.10021V8.00021H5.08984L1.89984 3.43021V8.00021H0.589844V1.10021H1.89984L5.08984 5.68021V1.10021H6.39984Z" fill="#3121E3"/>
<path d="M20.882 8.11022C19.9887 8.11022 19.292 7.85688 18.792 7.35021C18.292 6.84355 18.042 6.08688 18.042 5.08021V4.00021C18.042 2.99355 18.2954 2.23688 18.802 1.73021C19.3154 1.22355 20.022 0.970215 20.922 0.970215C21.8087 0.970215 22.5054 1.22355 23.012 1.73021C23.5187 2.23688 23.772 2.99355 23.772 4.00021V5.08021C23.772 6.08021 23.512 6.83688 22.992 7.35021C22.4787 7.85688 21.7754 8.11022 20.882 8.11022ZM20.922 6.93021C21.9487 6.93021 22.462 6.30688 22.462 5.06021V4.07021C22.462 2.77021 21.9487 2.12021 20.922 2.12021C20.3954 2.12021 20.002 2.28021 19.742 2.60021C19.4887 2.92021 19.362 3.41021 19.362 4.07021V5.06021C19.362 5.69355 19.4887 6.16355 19.742 6.47021C20.002 6.77688 20.3954 6.93021 20.922 6.93021Z" fill="#3121E3"/>
<path d="M44.0405 1.10021L42.1105 8.00021H40.9105L39.4305 2.69021L37.9405 8.00021H36.7505L34.7605 1.10021H36.1005L37.4105 6.15021L38.6205 1.10021H40.2405L41.5705 6.15021L42.7505 1.10021H44.0405Z" fill="#3121E3"/>
</svg>
