<svg width="16" height="15" viewBox="0 0 16 15" fill="none" xmlns="http://www.w3.org/2000/svg">
<path d="M11.4695 0.459473H4.59536C2.16812 0.459473 0.204102 2.24164 0.204102 4.44412V10.6817C0.204102 12.8842 2.16812 14.6663 4.59536 14.6663H11.4695C13.8967 14.6663 15.8607 12.8842 15.8607 10.6817V4.46093C15.8607 2.25845 13.8967 0.459473 11.4695 0.459473ZM13.9523 10.6985C13.9523 11.9427 12.8406 12.9514 11.4695 12.9514H4.59536C3.22425 12.9514 2.11254 11.9427 2.11254 10.6985V4.46093C2.11254 3.21678 3.22425 2.20801 4.59536 2.20801H11.4695C12.8406 2.20801 13.9523 3.21678 13.9523 4.46093V10.6985Z" fill="#3121E3"/>
</svg>
