<svg width="17" height="15" viewBox="0 0 17 15" fill="none" xmlns="http://www.w3.org/2000/svg">
<path d="M12.1971 6.56276H5.39716C4.0631 6.56276 2.91433 5.63806 2.84022 4.42753C2.7661 3.13294 3.91487 2.05692 5.32304 2.05692H14.1056C14.8467 1.38441 15.2729 0.997709 16.014 0.325195L5.41568 0.325195C3.04403 0.325195 1.00589 2.00648 0.913248 4.15853C0.820606 6.42826 2.82169 8.29449 5.30451 8.29449H12.1045C13.4385 8.29449 14.5873 9.21919 14.6614 10.4297C14.7355 11.7243 13.5868 12.8003 12.1786 12.8003H3.39607C2.65493 13.4728 2.22877 13.8595 1.48763 14.5321H12.086C14.4576 14.5321 16.4957 12.8508 16.5884 10.6987C16.681 8.4458 14.6614 6.56276 12.1971 6.56276Z" fill="#3121E3"/>
</svg>
