<svg width="27" height="27" viewBox="0 0 27 27" fill="none" xmlns="http://www.w3.org/2000/svg">
<path d="M3.82906 25.9998C4.33306 26.5038 5.00239 26.7812 5.71439 26.7812C6.42639 26.7812 7.09573 26.5038 7.59973 25.9998L13.3811 20.2185C14.3357 20.5132 15.3264 20.6625 16.3371 20.6625C19.0077 20.6625 21.5197 19.6238 23.4064 17.7358C26.2677 14.8732 27.1224 10.6038 25.5824 6.8585L24.8224 5.00784L19.1637 10.6652L16.3357 7.83584L21.9931 2.1785L20.1411 1.41717C18.9277 0.918504 17.6464 0.666504 16.3317 0.666504C13.6611 0.666504 11.1504 1.7065 9.26373 3.5945C6.61706 6.23984 5.68773 10.0905 6.78106 13.6185L0.999727 19.3998C-0.0402734 20.4385 -0.0402734 22.1318 0.999727 23.1705L3.82906 25.9998ZM9.89306 14.2785L9.55439 13.4572C8.42373 10.7092 9.05039 7.57717 11.1491 5.47984C12.5331 4.09584 14.3731 3.33317 16.3317 3.33317C16.5677 3.33317 16.8011 3.34384 17.0331 3.3665L12.5624 7.83717L19.1611 14.4372L23.6344 9.96384C23.8424 12.1078 23.0971 14.2718 21.5184 15.8518C19.4517 17.9185 16.2331 18.5545 13.5397 17.4465L12.7197 17.1065L5.71439 24.1145H5.71573L5.71439 25.4478V24.1145L2.88506 21.2852L9.89306 14.2785Z" fill="#3121E3"/>
</svg>
