<svg width="38" height="41" viewBox="0 0 38 41" fill="none" xmlns="http://www.w3.org/2000/svg">
<path d="M36.9899 10.8C36.9219 10.116 36.5079 9.51604 35.8939 9.21004L19.8939 1.21004C19.3319 0.928035 18.6679 0.928035 18.1039 1.21004L2.10389 9.21004C1.49189 9.51803 1.07789 10.118 1.00989 10.8C0.987885 11.014 -0.912115 32.334 18.1879 40.828C18.4459 40.944 18.7219 41 18.9999 41C19.2779 41 19.5539 40.944 19.8119 40.828C38.9119 32.334 37.0119 11.016 36.9899 10.8ZM18.9999 36.794C5.46189 30.25 4.82189 16.284 4.93189 12.27L18.9999 5.23604L33.0579 12.266C33.1319 16.244 32.4019 30.302 18.9999 36.794Z" fill="#31333B"/>
</svg>
